<?xml version="1.0" standalone="no"?>
<!DOCTYPE svg PUBLIC "-//W3C//DTD SVG 1.1//EN" "http://www.w3.org/Graphics/SVG/1.1/DTD/svg11.dtd" >
<svg xmlns="http://www.w3.org/2000/svg">
<metadata></metadata>
<defs>
<font id="roelregular" horiz-adv-x="1116" >
<font-face units-per-em="2048" ascent="1638" descent="-410" />
<missing-glyph horiz-adv-x="1404" />
<glyph unicode="&#xd;" horiz-adv-x="1404" />
<glyph unicode=" "  horiz-adv-x="1404" />
<glyph unicode="&#x09;" horiz-adv-x="1404" />
<glyph unicode="&#xa0;" horiz-adv-x="1404" />
<glyph unicode="!" horiz-adv-x="536" d="M174 -176q0 27 19 47q33 29 55 47q6 -6 55 -29q39 -16 47 -53q10 -39 -18.5 -92t-63.5 -53q-29 0 -50 24.5t-32.5 58t-11.5 50.5zM270 434q0 63 9.5 174t9.5 135q0 233 40 446.5t126 422.5q43 0 61.5 -28t18.5 -79q0 -76 -43 -207q-29 -81 -58 -161q-39 -133 -49 -304 t-18.5 -346.5t-36.5 -302.5q-33 47 -46.5 110.5t-13.5 139.5z" />
<glyph unicode="&#x22;" horiz-adv-x="804" d="M449 1118q0 113 41.5 214t107.5 136q4 -33 4 -49q0 -45 -22.5 -135t-22.5 -147v-248q-57 27 -82.5 87t-25.5 142zM664 1210q0 74 28.5 125.5t91.5 69.5q0 -49 -8 -124t-12 -124q0 -49 12 -104q29 -129 29 -164q-59 43 -100 135t-41 186z" />
<glyph unicode="#" horiz-adv-x="1218" d="M156 692q0 33 61 80q45 35 92 55q92 39 123 123q23 59 23 168v60q-76 -43 -131.5 -69t-83.5 -26q-31 0 -31 31q0 20 18.5 64.5t104.5 74.5q41 14 82 29q66 27 104 82q31 43 60 125q18 -10 73 -66q41 -39 78 -39q33 0 76 21q72 35 122 230.5t107 246.5h21v-20 q14 -16 14 -45q0 -35 -22 -84q-35 -76 -35 -78q-6 -25 -20.5 -71t-14.5 -68q0 -31 21.5 -52.5t76.5 -38.5q2 10 17 11q23 0 53 -23q14 -10 33 -29l4 -16q37 -41 40 -55.5t3 -28.5q0 -27 -19 -41q-31 -14 -49 -24q-8 49 -42 76.5t-79 27.5q-47 0 -82.5 -30.5t-41 -69.5 t-5.5 -64q0 -63 41 -135q20 -37 43 -74q-76 -37 -104 -143q-20 -76 -21 -213v-83t2 -77h-84q-8 35 -10 64.5t-2 70.5q0 45 2 91.5t4 93.5q0 43 -2 65.5t-12 69.5q-152 -35 -221 -98q-57 -51 -68 -129q-12 -162 -22 -246q-20 -154 -82 -209q-23 53 -23 123q0 49 16.5 155.5 t16.5 161.5q0 57 -10 96q-35 -39 -58 -61q-45 -45 -82 -45q-8 0 -24 4q-51 20 -51 51zM547 1044q0 -29 2 -46t8 -48q141 41 195 84q68 53 67 156q0 33 -2 51.5t-12 61.5h-41q-18 0 -73.5 -25t-69.5 -37q-39 -33 -56.5 -85t-17.5 -112z" />
<glyph unicode="$" horiz-adv-x="1095" d="M162 788q0 111 164 197q109 51 149 70q78 37 103.5 164t103.5 145q0 -66 4 -122t16 -105h5q59 8 77 20q35 23 60 86q18 49 24 100q16 152 37 218q39 119 129 155q8 -33 8 -67q0 -53 -22 -113q-66 -172 -71 -200.5t-5 -53.5q0 -55 45 -82q63 -37 86 -84q-92 0 -117 -12 q-49 -25 -49 -113q0 -29 -11 -91t-11 -85q0 -20 2 -31q10 -59 39 -69q47 -4 91 -14.5t60.5 -21.5t16.5 -58q0 -63 -62 -95q-33 -16 -63 -30q-47 -27 -65.5 -67t-18.5 -95q0 -41 7 -92.5t15 -98.5q-12 2 -41 2t-41 -2q-12 45 -28 95q-25 61 -35 92q-104 -29 -141 -101 q-27 -51 -27 -159v-54.5t2 -56.5q-35 -4 -43 -6q-25 -10 -39 -14q-33 70 -55.5 88t-65.5 18q-10 0 -45 -2t-61 -2q0 72 121 199q59 61 65 131q0 16 2 38.5t2 41.5q0 68 -25.5 97.5t-99 49.5t-121.5 55q-59 45 -69 111q-2 8 -2 24zM289 743q6 -2 69 -34q43 -23 72 -23 q27 0 46.5 16.5t29.5 41t10 49.5q0 37 -9 64.5t-32 72.5l-20 -21h-21q-49 -10 -92 -65q-35 -45 -53 -101zM578 504q0 -14 8 -44t12 -46q68 23 120 58.5t52 49.5q-6 25 -6 56l-21 20h-20l-102 -20q-43 -29 -43 -74zM578 723l20 -21h43q2 0 27.5 -8t46.5 -8q27 0 50 17.5 t37.5 64.5t14.5 102q0 70 -23.5 118t-72.5 48q-12 0 -19 -2q-82 -18 -106 -178q-10 -68 -18 -133zM889 598q41 -4 45 -4q2 0 37 27l-21 20q-12 10 -24 -2q-18 -20 -37 -41z" />
<glyph unicode="%" horiz-adv-x="1343" d="M158 1032q0 127 59 288t136 212t151 51q78 0 147 -57q59 -49 113 -142q33 -55 70 -55q18 0 43 17q84 55 94 59q35 16 65 16q18 0 38 -5t42 -11q-14 -127 -102 -275q-37 -61 -176 -253q-115 -158 -156 -256q-94 -186 -186 -373q-47 -164 -66 -236q-35 -127 -100 -219 q-35 27 -51.5 60.5t-16.5 70.5q0 61 49 156l144 270q33 104 114 260q113 215 133.5 260t77.5 131q88 135 88 218h-20q-39 8 -103 -93q-16 -27 -43 -71q-49 -88 -160.5 -167t-211.5 -79q-63 0 -103 35q-45 41 -63 127q-6 29 -6 61zM260 1028q0 -51 24.5 -75.5t67.5 -24.5 q72 0 163 64.5t126 144.5l-20 20h-84q-20 0 -79 7t-85 7q-43 0 -68.5 -16t-35 -55t-9.5 -72zM391 1303q47 -18 100.5 -34t98.5 -16q37 0 65.5 11.5t47 39t18.5 48.5q0 49 -78 84q-59 27 -127 32l-20 -20l20 -23q-23 -33 -55 -61q-59 -49 -70 -61zM725 330q0 137 119 266 q109 119 252 168q80 -43 161 -86q86 -62 86 -162q0 -70 -59 -154q-45 -63 -106 -114q-90 -76 -166 -115q-66 -33 -115 -33q-41 0 -75 20.5t-58 63.5q-39 70 -39 146zM821 299q0 -51 30 -74.5t71 -23.5q92 0 208 137q92 109 132 199l-21 20h-22q-4 2 -28 4t-28 2 q-39 0 -67 -6q-82 -14 -127 -23.5t-60 -17.5q-27 -18 -57.5 -90t-30.5 -127z" />
<glyph unicode="&#x26;" horiz-adv-x="1034" d="M162 657q0 74 139 166q43 29 195 107q88 45 106.5 71.5t18.5 98.5v57q0 162 16 246q27 139 106 188q25 -49 25 -114q0 -43 -35 -207q-18 -88 -18 -135v-34t8 -46q47 12 76 22q86 29 114 29q41 0 66 -25.5t33 -89.5q-98 0 -195 -33q-113 -47 -176 -69q-104 -37 -182 -82 q-94 -55 -150 -125q20 -6 45 -8t52 -2q76 0 163 20q221 51 279 51q63 0 92 -20.5t29 -54.5q0 -39 -35 -82t-86 -70q-160 -82 -207 -113q-102 -66 -166 -155q80 0 201 37q340 102 358 106q0 -98 -119 -133q-88 -20 -131 -31q-197 -74 -393 -145q-33 -8 -65 -8 q-43 0 -64.5 19.5t-21.5 51.5q0 41 31.5 93.5t78.5 91.5q119 82 178 121q106 72 154 147q-16 0 -203 -35q-98 -18 -147 -18q-43 0 -71.5 7.5t-53.5 25.5q-45 37 -45 79zM690 -195q0 63 17.5 107.5t56.5 67.5q25 -51 36 -123t11 -142q0 -51 -2 -104t-4 -107q-49 39 -82 127 t-33 174z" />
<glyph unicode="'" horiz-adv-x="454" d="M330 1448q0 74 4 128t17.5 103.5t27.5 51.5t55 6q6 -63 10.5 -137t4.5 -150q0 -96 -8.5 -194.5t-26.5 -180.5q-37 90 -60.5 184.5t-23.5 188.5z" />
<glyph unicode="(" horiz-adv-x="827" d="M82 537q0 319 186 639q176 303 455 499q68 -33 76 -41q34 -29 28 -84q-8 -61 -90 -100q-70 -33 -139 -66q-76 -53 -161 -142t-128 -167q-131 -236 -131 -495q0 -158 49 -312.5t228 -251.5q96 -51 329 -118q-315 0 -503 163q-199 172 -199 476z" />
<glyph unicode=")" horiz-adv-x="536" d="M61 -61h21q12 61 63 139q78 121 82 129q82 172 117 280q47 150 47 297v123q0 115 -7 189.5t-30.5 155.5t-97.5 173q-37 41 -72 84q-41 53 -41 95q0 41 39 41t86 -54q106 -121 168 -300t62 -351q-2 -33 -2 -47v-25q-14 -158 -49 -305t-97 -295q-20 -51 -84 -131 q-55 -70 -59 -76q-23 -33 -70 -84q-63 -70 -76 -59v21z" />
<glyph unicode="*" horiz-adv-x="1447" d="M178 1212q0 20 6 50q39 -6 75 -10.5t65 -4.5q39 0 90 15q-33 80 -45 114q-23 59 -23 109q0 12 4 45q68 -18 121 -94q33 -47 66 -93l20 21v20q25 27 25 66q-12 70 -25 141q10 61 39 62q25 0 53.5 -52.5t32.5 -104.5t7 -93t13 -80q104 94 152 133q84 68 162 68q39 0 80 -15 q-37 -41 -113 -98q-109 -82 -115 -88q43 -6 88 -6q121 0 308 33q92 16 184 34q-33 -76 -127 -100q-25 -6 -158 -20.5t-247.5 -53.5t-213.5 -94q88 -61 121 -92q59 -55 86 -115q-61 0 -131 19q-88 29 -137 43q-12 -51 -16 -127t-4 -146v-77q-70 29 -95 100q-18 94 -30 147 q-41 -47 -64 -71q-45 -49 -80 -49q-25 0 -43 16q-37 29 -37 67q0 51 66 130q47 57 96 114q-86 16 -172 33q-84 25 -84 104z" />
<glyph unicode="+" horiz-adv-x="991" d="M164 805v22l20 21q18 41 129 45t138.5 33.5t35 58.5t7.5 74q-2 41 -2 59q0 53 12 87t53 57q16 -47 21.5 -64.5t5.5 -40.5q0 -20 -5.5 -56t-9.5 -62.5t-4 -41.5q0 -27 13.5 -38t52.5 -11q18 0 35.5 2t106.5 14.5t136 12.5q39 0 82 -6q-29 -20 -258 -101 q-172 -59 -196 -147q-6 -23 -10.5 -58.5t-4.5 -97.5q0 -96 -10 -135q-18 -68 -78 -102q-12 59 -12 121q0 37 6 120.5t6 130.5q-2 43 -11 59.5t-32 16.5q-10 0 -19.5 -1t-61.5 -12t-60 -11q-18 0 -33 10q-27 23 -53 41z" />
<glyph unicode="," horiz-adv-x="661" d="M244 -360q0 47 39 122q53 98 108 197q14 37 42 93.5t41 90t19.5 102t84.5 85.5q23 -61 22 -140q0 -166 -111 -348q-98 -162 -241 -276v43q-4 20 -4 31z" />
<glyph unicode="-" horiz-adv-x="1363" d="M268 764q0 39 31 53t86 14q20 0 64.5 -2t62.5 -2h25q55 0 131 17q203 43 255 47t134 4q74 0 187.5 -3t119.5 -3v-21q0 -23 -14 -22q-14 0 -27 2q-18 -16 -31.5 -17.5t-29.5 -3.5q-252 -29 -498 -84q-100 -25 -197.5 -45t-156.5 -20q-66 0 -104 19.5t-38 66.5z" />
<glyph unicode="." horiz-adv-x="434" d="M223 111q0 53 31 101t76 36q31 -10 43 -26.5t12 -39.5t-10 -47t-25 -53q-23 -47 -36 -50t-46 -12v21l-41 41q-4 16 -4 29z" />
<glyph unicode="/" horiz-adv-x="1177" d="M227 -207q0 451 248 985q221 479 559 854q6 -4 27 -11t35 -9q0 -92 -62.5 -172t-124.5 -158q-135 -197 -268 -393q-66 -143 -147 -357q-45 -119 -135.5 -371.5t-131.5 -367.5z" />
<glyph unicode="0" horiz-adv-x="1054" d="M158 522q0 184 125 334q119 141 295 199q59 18 131 18q106 0 198 -42t127 -122q27 -61 27 -133q0 -201 -178 -385t-367 -184q-131 0 -225 59q-109 68 -127 189q-6 35 -6 67zM264 528q0 -106 62.5 -172.5t173.5 -66.5q59 0 121 20q119 37 246.5 202t127.5 296 q0 76 -47 117q-53 47 -164 47q-29 2 -50 3t-38 1q-45 0 -78.5 -9t-60.5 -36q-25 -39 -38 -53.5t-44 -28.5q-66 -29 -115 -75t-72.5 -114.5t-23.5 -130.5z" />
<glyph unicode="1" horiz-adv-x="516" d="M225 250q0 47 7.5 115.5t15.5 130.5q20 215 41 432q43 264 166 375l41 -41q8 -8 15 -23.5t7 -40.5q0 -49 -35 -129q-47 -100 -92 -201q-49 -193 -75.5 -415t-26.5 -433q-33 41 -48.5 101.5t-15.5 128.5z" />
<glyph unicode="2" horiz-adv-x="1488" d="M223 985q0 18 4 27q27 47 154 109.5t203 62.5q20 0 37 -6q68 -27 96 -96.5t28 -161.5q0 -49 -6 -92.5t-13 -71t-126 -260.5q-45 -88 -45 -150q0 -25 2 -37q145 41 291 84q170 49 297 72q166 31 303 31q-92 -51 -207 -93l-352 -114q-199 -76 -234 -88q-133 -43 -239 -43 q-43 0 -86 6q0 121 80 258q74 117 149 235q82 145 82 273q-6 57 -28.5 82.5t-59.5 25.5q-61 0 -166 -69q-70 -51 -139 -101l-21 21v41q-4 16 -4 55z" />
<glyph unicode="3" horiz-adv-x="970" d="M203 870q0 43 65 80q47 27 103 41q72 23 108 31q72 16 127 16q43 0 77 -10t60 -37q57 -57 58 -127q0 -80 -88 -190q-68 -80 -135 -158q25 -6 65 -6q20 0 68.5 2t70.5 2q63 0 101.5 -12.5t38.5 -44.5q0 -39 -54 -107q-45 -55 -118 -110q-66 -49 -129 -97q-39 -35 -76 -67 q-57 -45 -94 -45q-39 0 -60 51q-20 59 137 170q106 70 215 139q-14 2 -27.5 2h-19.5q-55 0 -145 -20q-49 -12 -88 -20.5t-68.5 -16.5t-48.5 -8q-29 0 -98 43q37 76 145 149q231 156 269 244q18 47 18 74q0 33 -20.5 46t-59.5 13q-35 0 -80 -10t-77.5 -16.5t-104.5 -30.5 q-49 -16 -88 -17q-10 0 -43 4v21q-4 16 -4 22z" />
<glyph unicode="4" horiz-adv-x="1177" d="M256 662q0 104 56.5 196t142.5 92q-45 -141 -90 -280q0 -39 20.5 -68t76.5 -46t60 -19q37 -10 60 -11q37 0 60.5 19.5t39.5 75.5q78 264 84 284q55 166 123 273h20l21 -21v-20q16 -25 16 -54q0 -16 -6 -37.5t-10 -33.5q-51 -125 -103 -248q-33 -68 -48 -105.5t-15 -60.5 q0 -41 10 -53.5t33 -12.5q37 4 61 5q82 0 179 20q117 29 172 41q0 -4 2 -8q25 -16 20 -33q-6 -16 -76 -39q-51 -16 -90 -22q-70 -16 -104 -23q-63 -14 -103 -18q-172 -25 -227 -271q-80 -352 -104 -391q0 160 22 316q16 119 62 305q-100 18 -201 39q-123 37 -152 125 q-12 37 -12 84z" />
<glyph unicode="5" horiz-adv-x="1261" d="M184 578v24q0 57 12.5 153.5t30.5 133.5q35 78 150 108q141 23 201 37q127 29 217 45q147 27 241 27t172 -21.5t135 -72.5q-72 -16 -360.5 -37t-425.5 -78q-201 -84 -268 -276q16 -4 56 -6.5t67 -2.5h69q143 0 207 -28q96 -45 96 -170q0 -166 -192 -287 q-170 -106 -344 -107v21l-21 20l21 82q18 20 49 21h33q94 18 174 63q94 53 137 123q23 39 23 74q0 39 -35 58.5t-88 19.5q-31 0 -66 -6.5t-79 -14.5t-72 -8q-57 0 -93 22.5t-47 82.5z" />
<glyph unicode="6" horiz-adv-x="1054" d="M207 289q0 242 92 485q113 297 299 363q4 -29 4 -43q0 -76 -59 -162q-162 -236 -172 -270q-41 -143 -49.5 -184.5t-8.5 -90.5q0 -41 8.5 -80t28.5 -80l312 164q43 12 104 25.5t108 13.5q53 0 93.5 -13.5t68 -47t27.5 -72.5q0 -88 -133 -178q-106 -72 -207 -99 q-59 -14 -102 -21t-86 -7q-14 0 -32 1t-48 7q-47 12 -67.5 17.5t-39.5 5.5q-29 0 -100 -43v61v20l20 21v20l-41 41q-8 35 -14 73t-6 73zM414 123q86 -35 192 -35q121 0 207 41q100 47 137 139l-41 41q-39 27 -94 27q-96 0 -229 -80q-102 -61 -172 -133z" />
<glyph unicode="7" horiz-adv-x="1034" d="M164 950q14 -2 31 -2q26 0 32 2l21 21h20l166 20q49 6 98 6q76 0 143.5 -11t151.5 -36q113 -33 129 -41q72 -37 78 -104q0 -88 -69 -199q-59 -86 -117 -172q-102 -172 -127 -211q-84 -127 -164 -182q20 88 109 235q59 98 77 138q80 119 120 192.5t40 124.5q0 31 -14 53 q-33 49 -81 68.5t-116 19.5t-203 -28.5t-188 -28.5q-68 0 -98 27q-39 33 -39 108z" />
<glyph unicode="8" horiz-adv-x="991" d="M176 694q0 76 68.5 140.5t169.5 95.5q63 20 162.5 40.5t179.5 20.5q98 0 158.5 -33.5t60.5 -113.5q0 -10 -4 -39q-51 45 -110.5 64.5t-133.5 19.5t-178.5 -22.5t-198.5 -102.5q-51 -43 -51 -86q0 -39 51 -80q33 -25 105 -61q41 -20 80 -21q66 0 165 88q115 100 189 119 q-23 -35 -129 -119q-90 -72 -98 -129q-8 -55 36 -104q12 -12 66 -62q37 -33 53.5 -63.5t16.5 -61.5q0 -92 -125 -161q-113 -63 -234 -64q-94 0 -135 27.5t-41 74.5q0 63 74 185q100 164 102 168l-84 41q-20 12 -60 38.5t-63 43.5q-45 37 -68.5 77.5t-23.5 79.5zM430 100 q0 -10 2 -22t2 -17q102 18 167 47t142 99v20l-20 21q-6 16 -63.5 59t-81.5 43q-72 0 -110 -83t-38 -167z" />
<glyph unicode="9" horiz-adv-x="868" d="M147 723q0 119 91 256q82 127 176 178q55 33 106 55q68 31 113 31q35 0 61.5 -14.5t48.5 -50.5q53 -66 82 -103q53 -70 43 -125q-4 -23 -30.5 -54.5t-32.5 -47.5q-10 -63 -21 -125q-2 -6 -88 -295q-55 -186 -75 -305q-6 -31 -11.5 -130t-31.5 -136q-27 43 -40.5 94 t-13.5 102q0 70 19 162q45 225 45 281q0 23 -2 50t-8 52h-41q-16 0 -43 -23q-66 -57 -80 -59q-29 -4 -88.5 2t-77.5 19q-100 63 -101 186zM268 750q0 -55 41 -88q29 -23 72 -23q74 0 161 64.5t120 123.5q14 31 29.5 83.5t15.5 97.5q0 49 -20.5 78.5t-65.5 29.5 q-55 0 -144 -69q-49 -39 -127 -117q-31 -31 -53 -76q-29 -55 -29 -104z" />
<glyph unicode=":" horiz-adv-x="350" d="M184 662q0 55 18.5 89.5t63.5 34.5q15 0 23 -2q68 -10 67 -86q0 -18 -7 -43.5t-53 -64.5t-89 -74q-8 29 -15.5 69t-7.5 77zM215 131q0 82 84 82q20 0 51 -6q0 -82 -24.5 -116t-98.5 -50q-12 53 -12 90z" />
<glyph unicode=";" horiz-adv-x="495" d="M207 -248q-8 25 8 68t33 78q41 123 82 245q16 66 35 133q25 59 90 74q6 -35 6 -74q0 -147 -78 -325t-176 -240v41zM268 836q0 51 16.5 88t49.5 37q12 0 37 -11q47 -25 47 -73q0 -45 -43 -107q-35 -49 -66 -68l-20 21v20q-20 31 -21 93z" />
<glyph unicode="&#x3c;" horiz-adv-x="1302" d="M184 625q0 53 37 110.5t109 112.5q109 82 202 153q160 123 205 156q117 84 213 146q6 -6 39 -12t45 -29q8 -14 8 -29q0 -23 -20 -45q-12 -12 -72 -51l-268 -166q-125 -72 -227 -162q-133 -115 -166 -211q98 -47 334 -94q274 -55 362 -86q188 -68 277 -191 q-133 14 -320 76q-422 139 -532.5 151.5t-168 57.5t-57.5 113z" />
<glyph unicode="=" horiz-adv-x="1095" d="M164 930v41q2 18 40 47t64 37q76 23 184.5 50.5t209.5 51.5q59 14 124.5 28.5t120.5 14.5q29 0 68 -4t69.5 -37t30.5 -80q0 -51 -35.5 -101t-89.5 -69q0 29 3 55.5t8 61.5q0 35 -17 49q-23 20 -76 21q-80 0 -186 -41q-53 -23 -104 -43l-164 -62q-92 -31 -162 -30 q-37 0 -88 10zM391 496v41q0 49 92 112q66 45 138 74q88 37 167 37q80 0 134.5 -39t68.5 -123q-80 16 -114.5 22.5t-67.5 6.5q-29 0 -59.5 -6.5t-200.5 -94.5q-68 -35 -121 -34q-12 0 -37 4z" />
<glyph unicode="&#x3e;" horiz-adv-x="1011" d="M207 1137q0 61 63 61q33 0 107 -20.5t98 -20.5q133 0 252 -49q137 -57 201.5 -153.5t64.5 -190.5q0 -106 -88 -213q-72 -88 -203 -180q-25 -16 -223 -183q-139 -115 -231 -147q10 12 23.5 32.5t17.5 28.5q14 35 84 107q31 31 102 100q166 123 256 197q166 137 166 258 q0 25 -6 50.5t-23 53.5q-55 100 -190 140q-92 27 -244 26h-35q-88 0 -127 15q-66 25 -65 88z" />
<glyph unicode="?" horiz-adv-x="763" d="M174 477q0 109 172 287q102 98 129 125q72 72 109 119q74 94 73 153q0 29 -18 49.5t-55 29.5t-68 9q-61 0 -143 -47q-63 -37 -89 -47t-48 -10q-59 0 -60 55q0 45 49 80t128 57.5t155 22.5q115 0 178 -43q78 -51 78 -160q0 -150 -211 -360q-92 -88 -182 -176 q-33 -37 -64 -72q-20 -31 -18 -53q6 -37 23.5 -48.5t47.5 -11.5h50q16 0 34.5 -5t47.5 -34q18 -20 24 -26l-20 -21q-14 -23 -68 -22q-59 0 -131 21.5t-90 41.5q-33 39 -33 86zM428 -131q0 17 6 29q14 33 49 53t71 28.5t60 8.5q29 0 52 -13q33 -23 57 -36q-82 -82 -123 -111 q-66 -45 -145 -55q-6 10 -11 20q-16 47 -16 76z" />
<glyph unicode="@" horiz-adv-x="1425" d="M164 940q0 242 119 430q129 205 358 285q111 37 227 37q186 0 326 -88q154 -96 211 -281q27 -82 27 -168q0 -147 -76 -305q-57 -121 -178 -272q-43 -55 -72 -56q-14 0 -42 14.5t-44 18.5t-33 4q-27 0 -147 -57q-59 -29 -105 -29q-20 0 -33 2q-57 12 -82.5 44t-25.5 83 q0 82 68 207q39 74 102 162q96 133 98 137q33 41 68 70q51 43 94 43q37 0 76 -35l78 -70q57 -43 57 -84q0 -33 -37 -82q-4 -4 -33 -43q-20 -27 -20 -49q0 -18 12 -74q178 160 178 379q0 158 -96 273q-104 125 -289 155q-35 6 -69 6q-193 0 -366 -156.5t-226 -365.5 q-25 -96 -25 -186q0 -268 211 -455q109 -96 215.5 -135t231.5 -39q100 0 228 22.5t255 47.5l-41 -41q-16 -18 -47 -37q-23 -12 -55 -25q-53 -20 -127 -37.5t-144 -25.5q-16 -2 -31.5 -3t-35.5 -1q-125 0 -244 45t-225 125q-143 109 -217 268.5t-74 341.5zM735 621.5 q0 -11.5 8 -43.5q141 33 234 172q84 129 84 280q0 35 -6 66h-21q-18 2 -39 -15q-20 -23 -24 -26q-10 -12 -49 -58.5t-54 -66.5q-88 -133 -92 -139q-41 -74 -41 -142v-27.5z" />
<glyph unicode="A" horiz-adv-x="1282" d="M193 133q0 98 61 219q27 53 131 215q86 135 111 197q45 117 137 272q121 205 151 267q197 289 394 579q51 -29 71.5 -81t20.5 -128q0 -59 -10.5 -125t-18.5 -123q-4 -20 -24 -184q-27 -201 -39 -311q-2 -8 -2 -16.5v-12.5q0 -68 73.5 -106.5t73.5 -112.5 q-100 -10 -113 -16q-45 -18 -52 -81t-7 -118q0 -145 47 -283q-61 -31 -123 -61q-20 84 -30.5 148.5t-10.5 142.5q0 23 11.5 77t11.5 72q0 29 -9.5 47.5t-31 27.5t-33.5 9q-25 0 -49 -18q-41 -29 -45 -31q-119 -41 -158 -55q-63 -25 -153 -68q-25 -12 -71 -16t-73 -25 q-74 -55 -107 -224t-100 -210q-35 61 -34 133zM578 682q33 -4 45 -4q43 0 96 16q150 47 170 49q131 18 158.5 47t27.5 99q37 283 76 567q0 76 -14 135h-21l-41 -41q-39 -27 -92 -104q-27 -39 -71 -117t-126 -217q-74 -125 -118 -213q-63 -125 -90 -217z" />
<glyph unicode="B" horiz-adv-x="1136" d="M164 164q0 18 13 57t30 88l82 312q0 25 -13.5 64.5t-13.5 51.5q0 10 4 21.5t68 87.5q27 31 37 63q23 68 45 138q47 127 141 172q2 -10 2 -20.5v-20.5q0 -43 -22.5 -123t-22.5 -127q0 -25 2 -39q80 39 170 102q49 35 162 125q59 47 95 98.5t36 98.5q0 78 -111 112 q-61 18 -123 19q-127 0 -274 -78q-102 -53 -244 -168l-20 21q-25 14 -25 57q0 29 6.5 50.5t18.5 37.5q49 72 219 139q147 57 256 68q180 0 264 -33q133 -51 150 -195q2 -12 2 -32q0 -100 -76 -199q-27 -35 -154 -162q111 -23 224 -45q127 -41 127 -162t-67 -215t-181 -157 q-217 -145 -434 -289q-20 -8 -47 -16.5t-52 -8.5q-39 0 -63.5 20.5t-24.5 65.5q0 55 86 82q59 16 80 23q166 47 354 190q213 162 246 305q-53 18 -106 37q-29 8 -62 8q-10 0 -39 -4q-92 -14 -186 -29.5t-166 -31.5q-186 -43 -235 -367q-16 -137 -33 -274q-41 6 -82 14 q-37 14 -43 68z" />
<glyph unicode="C" horiz-adv-x="1384" d="M176 510q0 326 280.5 610.5t598.5 284.5q94 0 146 -29.5t61 -113.5q0 -78 -63.5 -203t-123.5 -170q-27 -20 -53 -21q-31 0 -51.5 29t-20.5 74q0 37 51 90q78 78 156 158q-59 30 -121 30h-4q-90 0 -241 -92q-102 -61 -150 -82q-152 -63 -244 -209q-84 -131 -108 -309 q-6 -37 -6 -72q0 -188 157 -292q143 -94 355 -95h36q25 4 37 4q121 0 363 107q141 63 217 80q-6 -10 -10 -19q-17 -25 -33 -43q-2 -4 -37 -22q-23 -12 -45 -21q-104 -51 -207 -102q-104 -29 -201.5 -45.5t-205.5 -16.5q-158 0 -269 43q-131 51 -192 164q-72 131 -72 283z " />
<glyph unicode="D" d="M123 61h41q25 10 142.5 30t148.5 52q16 18 26.5 98.5t17.5 128.5t12 86t5 60q0 154 8 275.5t33 263.5q2 12 2 35q0 80 -207 170q-115 49 -145 124q-14 35 -14 58q0 28 26 28h2q41 0 154 -65q137 -80 141 -82q254 -104 428 -268q215 -201 215 -420q0 -74 -22 -139 q-57 -178 -314 -301q-123 -57 -245 -113q-76 -41 -152 -80q-111 -53 -176 -53q-47 0 -81 26.5t-46 85.5zM578 438q0 -141 20 -231q176 59 307 160q170 131 170 274q0 127 -123 252q-109 111 -250 162q-6 -10 -12 -21q-20 -38 -28 -63q-41 -96 -62.5 -237.5t-21.5 -295.5z " />
<glyph unicode="E" horiz-adv-x="1261" d="M170 319q0 131 70 324q98 272 112.5 335.5t100.5 184.5t145 140q20 4 31 4q14 0 46 -5.5t44 -5.5q20 0 45 7q43 12 104 47q84 47 103 55q59 27 126.5 55.5t121.5 28.5q74 0 110.5 -37t36.5 -94q0 -45 -23 -96q-73 65 -171 65h-3q-113 0 -272 -92q-39 -23 -154 -98 q-162 -109 -274 -242q-143 -170 -143 -324q0 -14 2 -30.5t2 -24.5q82 10 180 39q268 82 295 86q170 29 313.5 72t286.5 114l20 -22v-21q3 -7 3 -15q0 -23 -22 -45q-30 -30 -63 -42q-63 -29 -184 -59q-53 -14 -188 -45q-94 -23 -187 -52q-63 -20 -309 -112q-102 -39 -145 -68 q-72 -45 -72 -100q0 -57 72 -123q43 -39 98 -58.5t115 -19.5q106 0 266 61q123 49 246 101q61 27 106 43q88 35 107 35q8 0 8 -4q-12 -16 -35 -33q-129 -96 -270.5 -166t-288.5 -102q-33 -8 -81 -14.5t-89 -6.5q-106 0 -182 35q-90 41 -123 129q-20 51 -28.5 99t-8.5 97z " />
<glyph unicode="F" horiz-adv-x="1323" d="M164 1384l43 41q25 27 127 62q43 14 141 43q170 49 264 69q150 33 273 33q59 0 99 2t75 4q109 0 164 -24q78 -35 98 -125q-160 47 -305 47q-78 0 -157 -11.5t-181 -35.5q-145 -35 -230 -215q-73 -156 -73 -345v-5q0 -82 14 -140q68 16 164 58q219 94 270 108 q92 27 146 41q106 29 164 29q68 0 110.5 -29.5t54.5 -101.5q-49 8 -112 8q-193 0 -418 -90q-195 -78 -379 -209q-70 -49 -83 -193.5t-23 -275.5q-25 -133 -121 -149q0 72 18 163q43 215 43 271v22q0 61 -55 73.5t-64.5 41.5t-9.5 41q0 33 41 45q61 18 68 25q39 29 57 92 q6 18 27 196q2 20 51 226q18 78 18 133v45q-6 23 -8 30q-45 -10 -116.5 -48t-100.5 -38q-25 0 -48.5 19.5t-45.5 66.5z" />
<glyph unicode="G" horiz-adv-x="1632" d="M164 379q0 227 235 475q190 201 428 324q145 78 291 157q182 90 307 90q10 1 20 1q44 0 74 -22q37 -28 37 -65q0 -31 -28.5 -54t-79.5 -23q-72 0 -141 -21q-82 -29 -129 -43q-285 -82 -498 -223q-266 -178 -350 -418q-23 -59 -34 -110.5t-11 -102.5q0 -94 52 -155.5 t179 -86.5q74 -14 166 -14q193 0 379 69.5t323 192.5q-25 4 -43 4q-31 0 -178 -20q-74 -10 -114 -10q-76 0 -113 24q-47 33 -47 107q0 117 207 204q145 61 309 84q25 4 45 6.5t49 2.5q74 0 123 -22.5t74 -88.5q8 -23 8 -43q0 -41 -43 -90q-57 -68 -70 -94q-18 -45 -43 -125 q-31 -102 -39 -125q-35 -133 -53 -199q-35 -121 -92 -172q-4 20 -6 47t-2 49q0 43 5 116t5 85q0 39 -4 71t-19 66l-20 -20q-10 -2 -18 -2q-12 -10 -23 -21q-135 -61 -270 -123q-84 -23 -185.5 -40t-195.5 -17q-166 0 -271 49q-129 59 -176 195q-20 61 -20 131zM1012 475 q47 -10 94 -10q92 0 180 33.5t139 99.5l-20 23h-41h-5q-16 0 -51 -9q-42 -10 -110 -34q-117 -35 -186 -103zM1364 371q2 2 23.5 2t21.5 8q0 10 -25 33l-20 -23v-20z" />
<glyph unicode="H" horiz-adv-x="1468" d="M160 119q0 115 53 313q37 135 76 270q20 96 49 207q37 139 53 207q37 135 76 223q59 133 131 191h23l20 -21v-41q4 -20 4 -28q0 -16 -8 -42t-16 -55q-27 -100 -72 -217.5t-94 -216.5q-37 -70 -68 -178q-12 -41 -78 -340q-12 -55 -21 -228t-40 -245q-45 20 -66.5 73.5 t-21.5 127.5zM434 723q84 84 200 125t255 41q70 0 139 18q25 6 129 43q47 16 74 62q14 25 51 166q47 178 78 274q53 162 113 281q74 145 159 231h23l20 -20q14 -14 15 -31q0 -12 -15.5 -37t-19.5 -37q-53 -115 -105 -227q-63 -166 -125 -330q-8 -39 -51 -141 q-25 -59 -31 -91t-6 -44q0 -14 10.5 -37t16.5 -39h41q23 -23 29 -42.5t14 -39.5q-61 -25 -121 -47q-53 -29 -65 -99q-8 -31 -14.5 -61.5t-6.5 -62.5q-33 -279 -63 -558q-90 0 -260 160q-68 63 -134 129q-66 55 -129 111q-70 63 -118 137q-23 33 -53.5 87t-49.5 79zM612 606 q0 -49 52 -114q39 -49 100 -101q76 -63 147 -108q88 -55 164 -76q41 113 65.5 242t24.5 249v56q-6 35 -8 51h-41q-7 1 -15 1q-42 0 -118 -26q-90 -32 -132 -38.5t-91 -18.5t-98.5 -41t-49.5 -76z" />
<glyph unicode="I" horiz-adv-x="1716" d="M164 61l20 21h43q23 8 82.5 22.5t81.5 18.5q190 33 393 75t414 91q121 31 242 61q106 23 170 23q90 0 133 -29q55 -37 55 -117q-72 8 -158 9q-154 0 -327 -31q-113 -20 -324 -76q-164 -45 -327 -88q-100 -31 -162 -47q-119 -33 -185 -33q-63 0 -101 22.5t-50 77.5z M451 1352q0 41 45 53q6 2 22 2q18 0 88 -14q39 -8 56 -9q76 0 151.5 -2t151.5 -4q78 0 151 6q35 0 88 7q123 14 160 14q55 0 93 -9.5t92.5 -32t68.5 -50.5q8 -16 14 -72q-8 0 -207 23q-109 12 -168 12q-94 0 -153.5 -16.5t-94 -64.5t-57 -184.5t-22.5 -226.5q0 -51 7 -158.5 t7 -146.5q0 -51 -2 -76.5t-12 -72.5q-66 23 -89.5 68.5t-23.5 119.5q0 39 5 113t5 92q0 104 21 248q2 14 41 248l-21 22h-41q-18 6 -44.5 8t-28.5 2q-27 0 -99 -12q-37 -6 -61 -6h-33l-24 8q-37 10 -61.5 43t-24.5 68z" />
<glyph unicode="J" horiz-adv-x="1509" d="M61 309q4 -2 353 -379q125 -135 225 -135q51 0 103.5 35t105.5 109q170 240 248 622q61 307 61 680q0 14 4 34.5t4 27.5q0 12 -9 20t-32.5 17.5t-42.5 9.5q-35 0 -86 -27q-72 -37 -86 -41q-113 -45 -184.5 -67.5t-118.5 -22.5q-35 0 -62.5 11t-49 39t-21.5 54 q0 53 109 82q51 14 161 27q133 18 267 39q166 35 231 106q18 -18 43 -27.5t53 -9.5q25 0 76 8.5t76 8.5q113 0 190.5 -34t139.5 -112q-27 -12 -63 -18t-68 -6q-35 0 -105 6t-104 6q-84 0 -127 -31q-55 -39 -70 -143q-20 -150 -61 -373q-51 -276 -64 -370q-39 -276 -156 -494 q-156 -291 -380 -291q-117 0 -222 144q-43 59 -90 145q-25 43 -145 174q-94 102 -103 176z" />
<glyph unicode="K" horiz-adv-x="1384" d="M176 -86q0 88 35 229q29 113 57 228q20 102 41 207q0 59 -51 126.5t-51 143.5q133 14 170 143q14 127 32.5 267.5t106.5 189.5q12 -59 12 -107q0 -53 -11 -110t-21 -115q-2 -16 -10.5 -58t-8.5 -61q0 -53 64 -53q23 0 57 6q102 20 216 63.5t222 96.5q47 23 205 109 q68 37 131 116q168 207 178 215h21v-20q20 -23 20 -43q0 -14 -2 -21q-12 -27 -18 -41q-18 -47 -69.5 -116.5t-96.5 -110.5q-106 -100 -279 -174q-76 -33 -319 -113q-205 -68 -311 -127q23 -18 34 -26q41 -31 48 -35h20q10 -18 47 -45q29 -18 57 -37q6 -10 13 -18q8 0 28 -2 q156 -145 312 -291l39 -39l43 -43q-10 -8 12 -29q35 -29 70 -55q37 -45 77.5 -91t87.5 -93q-12 -2 -34 -3q-88 0 -189 89q-86 80 -170 161q-6 6 -131 115q-145 127 -239 174q-47 33 -74 49q-49 33 -84 33q-27 0 -49.5 -19.5t-48 -114.5t-35.5 -155q-8 -133 -13 -211 q-14 -256 -133 -282q-4 20 -6 46.5t-2 51.5z" />
<glyph unicode="L" horiz-adv-x="1241" d="M158 -2q0 33 23.5 92.5t25.5 73.5q61 279 123 559q18 131 73 338q45 172 52 201l32 172q31 122 69 122h1q20 0 41 -26q39 -45 39 -105q0 -51 -31 -125q-45 -109 -49 -122q-61 -197 -123 -394q-8 -47 -20 -96q-23 -76 -40.5 -145.5t-17.5 -98.5q0 -25 15 -73q59 23 107 34 t91 11q82 0 174 -45q39 -18 293 -277q94 -96 205 -114q-29 -37 -61.5 -56.5t-61.5 -19.5q-68 0 -157 96q-219 233 -275.5 246.5t-97.5 13.5q-131 0 -215 -110q-68 -88 -105 -252q-37 10 -55 14t-49 6v41q-6 18 -6 39z" />
<glyph unicode="M" horiz-adv-x="1818" d="M158 162q0 82 24 192q33 125 45 183q23 100 103 387q47 168 60 226t20.5 213t44.5 228q55 -27 78.5 -63.5t22.5 -83.5q0 -33 -9 -80q-29 -131 -31 -145q-6 -59 -31 -134q-37 -109 -71 -217q-70 -299 -140 -596q0 -70 15 -129q119 84 237 232q106 133 205 297 q74 123 158 299q106 227 172 338q129 223 221 262q0 -90 -4 -147.5t-37 -161.5q-63 -186 -125 -373q-49 -188 -61 -244q-31 -143 -31 -256q0 -115 31 -205q90 115 194 293q88 154 177.5 306.5t138.5 222.5q94 129 172 172q33 -53 46 -103.5t13 -107.5q0 -70 -24 -174 q-55 -233 -56 -318q0 -55 14.5 -167.5t14.5 -170.5q0 -55 -8 -96q-70 33 -107 139q-25 70 -39 191q-2 16 -2 33.5v27.5q0 39 7.5 125t7.5 119q0 55 -13 108q-135 -96 -258 -352q-57 -125 -114 -248q-31 -66 -84 -123q-60 -65 -108 -65h-1q-23 0 -41 14.5t-35 50.5 q-43 106 -43 234q0 117 41 287q90 375 90 467v32q-4 25 -4 35q-66 -135 -123 -243.5t-127 -231.5q-176 -270 -350 -539q-27 -51 -74 -81.5t-96 -30.5q-82 0 -100 92q-6 41 -6 80z" />
<glyph unicode="N" horiz-adv-x="1241" d="M164 102q0 131 26 291q2 12 58 289l82 414q31 133 61 268q14 74 27.5 89t64.5 15h33q0 -156 -67 -376q-86 -283 -99 -369q-33 -215 -63 -428q0 -86 22 -152q125 70 238 199q86 98 188 268q66 106 154 279q57 137 92 207q63 129 135 145q31 -94 43 -135q23 -80 23 -133 q0 -14 -4 -43q-12 -70 -16.5 -151t-4.5 -158v-105q0 -43 -8 -135t-8 -141q0 -63 7 -105.5t27.5 -87.5t43 -61.5t47.5 -16.5q20 0 53 11q61 18 65 20q0 -76 -31.5 -120t-90.5 -44q-41 0 -84 21q-59 29 -97.5 90t-46.5 135q-33 414 -63 827l-41 -61q-51 -61 -113 -170 q-47 -84 -94 -182q-35 -76 -109 -179q-63 -88 -139 -174q-53 -59 -113 -104q-78 -59 -129 -59q-70 0 -69 122z" />
<glyph unicode="O" horiz-adv-x="1447" d="M180 541q0 80 8.5 154.5t38.5 193.5q68 266 305 463q229 188 502 219q35 4 71 8t62 4q53 0 94 -11t82 -42q88 -63 127 -176q33 -94 33 -224q0 -41 -4 -87t-10 -93q-55 -315 -315 -610q-283 -319 -576 -320q-227 0 -332 160q-86 131 -86 361zM268 621q0 -231 33 -334 q59 -184 236 -185q188 0 405 166q188 143 299 330q104 178 139 256q72 158 72 281q0 72 -19.5 130t-66.5 117.5t-101.5 83t-121.5 23.5q-57 0 -137 -21q-54 -14 -138 -43q-78 -27 -157 -108q-70 -74 -113 -160q-20 -45 -41 -72q-29 -39 -61 -51l-21 21q-94 -31 -156 -185 q-51 -127 -51 -249z" />
<glyph unicode="P" d="M164 102q-1 6 -1 14q-1 32 13 88q16 68 31 126q16 160 53 305q31 121 90 295q20 57 60 305q29 182 106 274q47 55 111 258q53 168 157 238q74 47 142 47q123 0 217 -154q80 -131 98 -286q6 -47 6 -94q0 -303 -172 -529q-186 -246 -477 -246q-23 0 -44.5 2.5t-41.5 4.5 q-20 0 -37 -7q-37 -14 -59 -67q-12 -31 -25 -98q-51 -309 -123 -558h-20l-21 21q-33 6 -45 16.5t-18 44.5zM455 848q8 -4 26.5 -10.5t34.5 -10.5q33 -8 74 -8q100 0 209 62q84 47 171 130t142 219t55 275q0 113 -36.5 204t-118.5 153q-48 36 -96 36h-3q-102 0 -200 -169 q-41 -72 -115 -261q-47 -123 -86 -307q-23 -104 -57 -313z" />
<glyph unicode="Q" horiz-adv-x="1343" d="M170 369q0 150 57 327q18 59 123 316q66 158 180 297q106 131 254 241q74 66 115 101q79 65 133 65h2q43 0 57.5 -13t14.5 -38v-47q0 -29 10 -47q18 -29 66 -43q57 -12 80 -19q66 -18 122 -61t84 -105q59 -137 60 -282q0 -193 -107 -393q-96 -178 -264 -338 q-80 -76 -80 -105q0 -31 60 -102q29 -35 59 -68q18 -23 18 -45q0 -18 -16 -71l-20 20h-21q-29 4 -143 133q-51 57 -96 58q-12 0 -28 -5.5t-48.5 -40t-57.5 -43.5q-61 -23 -120.5 -40t-89 -20t-56.5 -3q-117 0 -209 57q-102 63 -125 172q-14 66 -14 142zM268 383 q0 -137 58 -211q72 -90 231 -90q100 0 188 43q102 51 103 131q0 35 -21 74q-100 182 -122 227q-66 135 -84 248q-8 49 -10.5 93t-2.5 101v56q0 43 -2 84t-8 80l-41 -41q-29 -25 -47 -54.5t-35 -68.5q-74 -156 -145 -312q-29 -113 -41 -174q-20 -102 -21 -186zM696 981 q0 -78 21 -162q8 -33 88 -262q33 -90 72 -147q57 -86 120 -86q18 0 37 6q61 23 125 92q25 27 103 135q88 125 141 242q70 152 70 274q0 96 -45.5 176t-145.5 135q-61 35 -139 35q-117 0 -231 -71.5t-169 -169.5q-25 -47 -36 -94.5t-11 -102.5z" />
<glyph unicode="R" horiz-adv-x="1177" d="M164 20q0 178 57 441q78 358 88 428q23 152 49 252q35 125 97 243q68 147 137 297q102 195 213 242q49 20 98 21q145 0 230 -197q65 -154 65 -336v-6q0 -115 -13.5 -205t-47.5 -209q-25 -88 -109 -180q-215 -238 -223 -254q45 -29 100 -80l86 -86q90 -82 183 -162 q88 -90 88 -209q-100 0 -201 91q-86 78 -172 157q-25 16 -84 107q-27 39 -62 59q-51 27 -77 27q-14 0 -41 -10.5t-47 -16.5q-29 68 -29 94q0 49 117.5 93.5t218.5 121.5q109 84 170 187q43 76 66.5 174t23.5 205q0 223 -90 387q-53 98 -131 98q-63 0 -136 -65 q-59 -55 -106 -138q-82 -137 -137 -276q-61 -152 -90 -303q-35 -164 -70 -343.5t-35 -318.5q0 -162 -24 -254q-39 -150 -142 -178v21l-20 20v61z" />
<glyph unicode="S" horiz-adv-x="1241" d="M178 1130q0 33 6 68q41 205 363 369q260 133 528 170q20 2 35.5 3t28.5 1q121 0 220 -47t99 -127q0 -33 -17.5 -68t-56.5 -74q-35 102 -73 144q-47 49 -127 49q-31 0 -86.5 -9.5t-169.5 -52.5q-166 -61 -185 -67q-119 -39 -218 -99.5t-175 -148.5q-29 -33 -43 -72 t-14 -73q0 -63 38 -123t103 -105q100 -74 219 -131q100 -49 233.5 -96t196.5 -88q109 -70 109 -160q0 -20 -2 -30.5t-12 -32.5q-43 -102 -197 -183q-10 -6 -258 -106q-86 -35 -154 -55q-100 -31 -168 -31q-61 0 -108 19.5t-86 66.5q68 43 213 54t201 28q291 86 495 291 l-41 41q-10 14 -14 19t-6 7q0 -12 -3 -13t-18 7q-74 43 -131 70q-76 37 -139 53q-225 66 -383 186q-203 156 -203 346z" />
<glyph unicode="T" horiz-adv-x="1447" d="M164 1343q0 41 39 67t86 38l454 102q66 10 246 41q293 51 459 51q168 0 304 -44t233 -150q-70 0 -144 25q-174 57 -229 57q-33 0 -113 2t-123 2q-285 0 -405 -84q-98 -70 -120 -190.5t-95 -444.5q-35 -154 -54.5 -262.5t-40 -227t-19.5 -223.5q0 -63 -13 -79.5t-72 -42.5 q-14 37 -21.5 74.5t-7.5 86.5q0 100 35 242q98 395 99 401q47 264 94 531q0 55 -13 110q-111 -18 -260 -79q-225 -94 -256 -105q-14 16 -26 33q-37 55 -37 69z" />
<glyph unicode="U" horiz-adv-x="1425" d="M160 287q0 82 15 181t32 194q8 66 26 141q53 223 56 231q29 164 37 189q35 104 108 120q0 -2 2 -2q19 -52 19 -81v-23q0 -49 -21.5 -102.5t-42.5 -100.5q-29 -94 -47 -160.5t-35 -150.5q-27 -135 -33 -180q-20 -131 -20 -221q0 -100 25.5 -155.5t87.5 -55.5q43 0 106 32 q266 147 496 426q238 289 311 568q47 184 113 317q98 201 217 221q8 -31 8 -65q0 -100 -84 -238q-115 -186 -131 -235q-49 -135 -82 -240q-49 -150 -72 -260q-30 -142 -30 -257v-7q0 -100 20 -189q33 14 45 19q41 18 78 24v-49q0 -86 -12 -121q-20 -57 -80 -57 q-72 0 -108 38t-46 96.5t-10 115.5q0 47 14 186q8 80 8 113q0 70 -14 133q-139 -197 -264 -336q-154 -170 -315 -285q-47 -33 -104.5 -57t-104.5 -24q-49 0 -87 28.5t-57 93.5q-24 79 -24 177v8z" />
<glyph unicode="V" horiz-adv-x="1011" d="M162 1444q0 61 18.5 98t67.5 49q37 -109 51 -229.5t14 -261.5q0 -51 -2 -155.5t-2 -160.5q0 -47 -11 -179t-11 -171q0 -68 9 -121t34 -106l20 20h21q12 6 20 9.5t15 9.5q-23 0 -23 10q4 8 8 12q88 82 187 209q53 70 164.5 226.5t166.5 226.5q41 53 86 111.5t80 115.5 q55 96 72 96q0 -6 2 -12q-4 -27 -33 -84q-37 -76 -209 -330q-80 -117 -123 -206q-51 -106 -157 -254q-139 -190 -171 -240.5t-67 -77t-74 -26.5q-43 0 -88 38q-31 27 -37 86.5t-6 161.5v889q0 33 -11 126t-11 120z" />
<glyph unicode="W" horiz-adv-x="1695" d="M164 305q0 57 7 126t13 126q16 190 27 283q18 164 57 276q51 162 105 324q80 207 184 256q14 -37 14 -80q0 -74 -45 -168q-133 -279 -135 -291q-18 -78 -43.5 -225.5t-36 -213t-16.5 -114.5q-20 -125 -21 -174q0 -57 12.5 -96t18.5 -128t78 -89q20 0 51 6q160 33 316 231 q121 154 200 348q18 43 43 224q37 268 185 293q0 -117 -33 -267q-78 -354 -78 -444q0 -53 6 -99.5t23.5 -103.5t46 -86t67.5 -29q45 0 99.5 41t95.5 99q86 119 125 180q70 109 112 195q51 104 74 204q35 150 43 203q18 109 19 211q0 104 13 150.5t71 97.5q14 -59 14 -129 q0 -90 -23 -225q-33 -193 -34 -226q0 -84 -33 -180q-6 -18 -70 -170q-33 -82 -74 -154q-33 -59 -153 -239q-63 -96 -115 -146q-77 -73 -151 -73h-2q-29 0 -64 12q-94 39 -137 190q-35 178 -49 244h-21l-41 -41q-33 -25 -98 -110q-45 -59 -88 -117q-84 -104 -143 -150 q-86 -63 -185 -63q-31 0 -65 6q-92 18 -133 111q-33 76 -33 194z" />
<glyph unicode="X" horiz-adv-x="1241" d="M82 -248q0 236 162 510q145 229 293 461q27 51 26 96q0 61 -55 146q-84 127 -94.5 151.5t-75.5 128.5q-47 76 -47 119q0 33 17.5 57.5t62.5 46.5q145 -270 291 -538l61 41q92 61 190 196q82 117 166 236q100 133 203 188q49 29 90 29q51 0 51 -41q0 -43 -59 -90 q-137 -111 -211 -176q-51 -45 -119 -115q-53 -51 -93 -101t-73 -106q-10 -16 -65 -67q-47 -45 -56.5 -66.5t-9.5 -36.5q0 -57 86 -155q16 -18 127 -129q98 -86 137 -123q68 -66 68 -131q0 -33 -18 -76q-86 47 -201 188q-152 188 -193 226t-79 38q-49 0 -109 -77 q-27 -35 -59 -86q-61 -92 -123 -183q-72 -109 -105 -190q-72 -178 -82 -199q-51 -113 -104 -172z" />
<glyph unicode="Y" horiz-adv-x="1241" d="M164 350q0 281 6 381q14 238 63 408q61 211 181 329l20 -20q2 -2 8.5 -24.5t12.5 -42t6 -40.5q0 -53 -33 -118q-49 -94 -98 -189q-41 -147 -64.5 -290.5t-23.5 -284.5q0 -63 6 -129q0 -96 31.5 -139.5t89.5 -43.5q80 0 196 76q98 66 178 148q111 119 195 233 q94 129 158 264q18 37 78 197q47 127 88 176l20 21l41 -43q12 -16 12 -52q0 -49 -19.5 -116.5t-33.5 -120.5q-35 -172 -58.5 -306.5t-45.5 -293.5q-14 -96 -93 -436q-37 -156 -50 -250.5t-40 -192.5q-39 -139 -45 -174q-14 -94 -51 -182q-43 -104 -94 -150 q-31 -29 -64.5 -43t-62.5 -14q-63 0 -107.5 56.5t-52.5 123t-8 107.5q0 66 8 125t39 164.5t111 236.5q68 109 137 217q18 31 153 225q152 217 152 387q0 39 -2 61.5t-12 70.5q-45 -49 -181 -220q-117 -147 -184 -217q-106 -113 -215 -184q-47 -31 -123 -31t-124 31 t-76.5 130t-28.5 179zM563 -840q0 -43 11.5 -72.5t46.5 -58.5q24 -22 53 -22h2q55 0 108 86q39 61 64 143q59 213 121 424q69 266 69 433v59q-4 23 -4 32l-8 -12q-25 -39 -35 -49q-156 -145 -270 -391q-104 -223 -143 -455q-4 -27 -7 -41q-8 -51 -8 -76z" />
<glyph unicode="Z" horiz-adv-x="1882" d="M227 475q143 80 340 141q172 53 345 85t329 63q82 14 145 96q78 102 123 297q8 35 14.5 79t6.5 83q0 45 -8.5 80t-32.5 69q-53 74 -159.5 110t-221.5 36q-37 0 -53 -2q-186 -16 -348 -105.5t-273 -244.5l-43 41q-29 27 -29 57q0 61 109 143q78 57 150 88q129 57 251 95 q154 45 281 45q115 0 210 -37t167 -123q47 -59 68.5 -117.5t21.5 -122.5q0 -98 -53 -248q-29 -78 -58 -153q-12 -33 -24 -67t-12 -60q0 -33 16 -60q10 -16 41 -36.5t42 -50t11 -44.5q0 -14 -10 -30q-16 -29 -23 -45q-82 47 -139 47q-66 0 -131 -80q-12 -14 -82 -113 q-25 -35 -201 -233q-129 -145 -170 -260q37 -18 73 -26.5t73 -8.5q82 0 190 43q10 4 119 53q45 18 231 152q141 100 240 100q55 0 109 -27q-82 -102 -228 -159q-84 -33 -166 -66q-45 -20 -196 -98q-209 -109 -342 -109q-98 0 -144.5 35t-46.5 94q0 57 39 131q33 63 90 131 q145 160 213 238q121 137 181 260q-178 0 -373 -63q-264 -82 -297 -95q-166 -59 -283 -133q-35 43 -47 62q-23 33 -35 63z" />
<glyph unicode="[" horiz-adv-x="1157" d="M225 -59q0 25 5.5 80t5.5 167q0 47 -2.5 143.5t-2.5 143.5q0 104 3.5 146.5t13.5 121.5q31 197 61 394q0 43 -26 161q-14 63 -15 107h56h26q166 31 332 63q61 0 145 21q184 45 234 45q12 0 29.5 -2t25.5 -2q-29 -127 -307 -150q-117 -8 -231 -16q-84 -12 -107 -21 q-59 -20 -59 -102q0 -27 2 -43q0 -68 -7.5 -132.5t-35.5 -197.5q-16 -84 -23.5 -167t-7.5 -175q0 -80 5 -222t5 -181v-57q0 -51 17.5 -68.5t87.5 -17.5q84 0 192 24q256 57 324 57q-55 -68 -199 -118q-43 -14 -235 -66q-82 -27 -121 -37q-70 -20 -105 -20q-43 0 -64.5 26.5 t-21.5 94.5z" />
<glyph unicode="\" d="M240 1307q0 90 45 90q16 0 33.5 -21.5t31.5 -72.5q23 -76 64 -195q20 -59 41 -117q41 -131 149 -307q90 -147 180 -293q20 -39 154 -207q98 -125 117 -225l-21 21q-27 -4 -57 30q-14 14 -27 31q-117 117 -217 262q-92 131 -176 295q-35 66 -129 236q-139 248 -180 407 q-8 31 -8 66z" />
<glyph unicode="]" horiz-adv-x="1198" d="M164 -102q98 96 291 151q227 51 329 74q123 29 183 162q45 102 45 252q0 123 14 487q8 209 8 299q-4 55 -36.5 76.5t-88.5 21.5q-49 0 -114.5 -15t-92.5 -22q-78 -31 -125 -48t-77 -17q-59 0 -66 65q-8 72 117 91q55 6 111 14q197 31 393 61q8 -8 53 -34q25 -15 29 -68 q0 -27 6 -76q14 -117 14 -153q0 -90 -12 -215q-29 -293 -29 -363q0 -23 2 -86t2 -100q0 -252 -59 -351q-51 -84 -152 -84q-121 0 -282 -36q-379 -86 -463 -86z" />
<glyph unicode="^" horiz-adv-x="970" d="M164 702q0 72 92 181q121 143 134 168.5t97 220.5q61 139 111 196h23l41 -43q33 -31 79.5 -132t65 -163.5t67.5 -207.5q84 -248 97 -365q-102 43 -160 176q-43 127 -84 254q-51 150 -129 211q-84 -125 -123 -182q-68 -102 -104 -189q-20 -55 -41 -108q-29 -68 -62 -98 q-23 -18 -41 -19q-27 0 -45 27.5t-18 72.5z" />
<glyph unicode="_" horiz-adv-x="2025" d="M96 51q0 23 6 51q94 -23 180.5 -31t186.5 -8q131 0 322 21q217 27 325 39q414 41 828 84q6 -8 53 -35q35 -20 35 -53q-1 -14 -7 -37q-12 -43 -63 -72.5t-100 -29.5t-70 18q-20 29 -35 43q-23 25 -65.5 36t-104.5 11q-80 0 -182 -16.5t-186 -30.5q-383 -51 -764 -102 q-43 -6 -96.5 -11.5t-75.5 -5.5q-88 0 -131 25q-55 31 -56 104z" />
<glyph unicode="`" horiz-adv-x="557" d="M102 1096q14 47 45 47q29 0 68 -41q25 -25 54.5 -71t115.5 -140q147 -162 172 -250h-20q-14 -8 -37 0t-45 21q-66 35 -127 112q-68 94 -101 135q-55 55 -84 86q-53 59 -41 101z" />
<glyph unicode="a" horiz-adv-x="1034" d="M78 174q0 156 98 342q84 162 223 322q111 129 242 237q39 31 94 60q66 34 109 34h2q53 0 53 -57q0 -20 -11 -60t-62.5 -68t-102.5 -54q-102 -63 -152 -96q-92 -63 -137 -132q-61 -92 -102 -159q-59 -98 -83 -168t-38 -121q-23 -80 -23 -127q0 -59 28 -93t93 -34 q131 0 295 184q135 154 201 312q12 27 35 204q16 121 90 168q39 -53 54 -113.5t15 -129.5q0 -51 -12 -158t-12 -162q0 -57 3 -78.5t11 -55.5t16.5 -62.5t8.5 -49.5q0 -23 -9.5 -35t-33.5 -12q-18 0 -41 8q-61 23 -82 123q-10 82 -21 166l-43 -41q-14 -10 -196 -215 q-68 -76 -140.5 -117.5t-160.5 -41.5q-55 0 -97.5 19t-66.5 67q-45 90 -45 194z" />
<glyph unicode="b" horiz-adv-x="722" d="M82 807q0 35 20 61l21 21h20l21 20q18 25 18 93.5t4 138t11 184.5q18 143 92 164q14 -41 22 -98.5t8 -102.5q0 -70 -9 -143.5t-42 -214.5q27 -8 54.5 -11.5t74.5 -3.5q29 0 89.5 2.5t88.5 2.5q131 0 191 -33q82 -45 82 -164q0 -147 -137 -295q-119 -123 -236 -244 q-82 -109 -129 -157q-104 -109 -170 -109q-29 0 -43 14.5t-14 34.5q0 31 35 82q27 37 53 74l-64 41q-59 59 -59 145q0 39 14 101q33 141 33 184q0 37 -8 68q-18 49 -29.5 84.5t-11.5 60.5zM207 397q0 -88 5 -151.5t15 -122.5l41 41q66 25 156 141q131 168 133 170 q57 53 100 115q66 90 66 145q0 33 -24.5 51.5t-77.5 18.5h-2q-25 0 -103 -37q-41 -20 -75.5 -27.5t-84.5 -15.5q-55 -14 -89 -45t-47 -105.5t-13 -177.5z" />
<glyph unicode="c" horiz-adv-x="1218" d="M74 266q0 125 100 273q88 127 199.5 206.5t208.5 118.5q117 47 237 47q33 0 77 -4t75 -49q24 -36 24 -97v-42q-4 -25 -4 -37q-27 2 -135 57q-49 25 -100 25q-41 0 -119 -29q-63 -23 -121 -53q-102 -51 -207 -176q-121 -143 -121 -248q0 -59 37 -98t125 -58q39 -8 88 -8 q88 0 209 31q53 14 201 59q57 18 141 70q160 96 230 96q0 -4 2 -6q-9 -53 -23 -76q-37 -53 -162 -114q-90 -43 -188 -72q-139 -41 -205 -55q-127 -29 -221 -29q-76 0 -129 13.5t-108.5 50t-83 91t-27.5 113.5z" />
<glyph unicode="d" horiz-adv-x="1136" d="M90 180q0 86 43 185q53 121 179 279.5t227 254.5q180 174 297 174q55 0 94 -39l-21 -22v-21q-8 -10 -13 -16t-7 -10q-2 16 -21 6q-84 -41 -166 -82q-82 -55 -178 -158q-109 -123 -153 -174q-72 -82 -121 -166q-68 -115 -68 -196q0 -20 2 -31q14 -78 62 -78q18 0 52 14.5 t52 22.5q111 49 217 147q90 84 176 205q27 37 115 139q131 152 154 254q12 49 32 146q12 55 52 248q4 18 4 61q0 29 -1 58.5t-1 58.5q0 39 3 55t15 35q23 33 47 33q33 0 55.5 -57.5t22.5 -100.5q0 -172 -54 -376t-110 -394q-70 -240 -86 -387q-2 -12 -2 -35q0 -43 14.5 -79 t30.5 -73q8 -20 16.5 -57t8.5 -70q0 -47 -16.5 -74.5t-59.5 -27.5q-8 0 -33 4q-43 10 -60.5 45t-17.5 90q0 33 8.5 100.5t8.5 92.5q25 166 49 334q0 14 -1 31.5t-7 48.5q-76 -37 -160 -156q-109 -156 -149 -195q-68 -63 -136 -127q-76 -63 -155 -80q-33 -8 -69 -15t-54 -7 q-39 0 -63.5 21.5t-39 70.5t-14.5 90z" />
<glyph unicode="e" d="M96 270q0 29 6 60q25 113 127 225q84 94 205 168q104 66 209 133q137 76 236 76q20 0 61 -5t72.5 -37t31.5 -85q0 -84 -73 -164q-90 -102 -160 -166q-61 -55 -109 -84q-76 -43 -139 -43q-35 0 -71.5 7t-63.5 12.5t-51 5.5q-66 0 -119 -32t-53 -79q0 -49 67.5 -100 t162.5 -77t202 -26q199 0 477 84q94 29 250 84v-20q4 -20 -57 -60q-31 -18 -45 -24q-115 -41 -228 -82q-111 -27 -250 -34t-309 -7q-145 0 -254 66q-125 76 -125 204zM414 537q55 -12 104 -13q119 0 225 66q94 57 187 174l-21 20h-20q-14 8 -35 9q-23 0 -58.5 -12.5 t-52.5 -16.5q-100 -33 -186 -89.5t-143 -137.5z" />
<glyph unicode="f" horiz-adv-x="929" d="M74 508q0 20 8 29q16 20 32.5 27t43.5 7q16 0 32.5 -2t34.5 -4q31 0 47 13q25 18 38.5 65t49.5 381q25 231 136 360q49 57 131 91t157 34q72 0 126.5 -11t80.5 -50q16 -25 17 -43q0 -16 -16.5 -43t-20.5 -39q-96 55 -180 55q-188 0 -285 -280q-72 -211 -72 -477 q90 14 209 53q326 106 348 110q-68 -59 -174 -124.5t-205.5 -105.5t-130.5 -62q-67 -48 -67 -199q0 -106 -15 -180q-23 -117 -69 -133q-16 -6 -29 -7q-35 0 -54.5 35t-19.5 74q0 33 10.5 81t10.5 64q0 39 2 59.5t18 84.5q-31 2 -59 4q-74 8 -86 16q-14 12 -31.5 50t-17.5 67 z" />
<glyph unicode="g" horiz-adv-x="950" d="M80 180q0 137 164 336q106 121 147 166q61 68 135 123q102 76 164 76q39 0 62.5 -27t31.5 -90q-166 -37 -320.5 -170t-236.5 -305q-6 -12 -37 -60q-23 -35 -22 -57q0 -25 16 -49q31 -45 82 -45q53 0 140 57q35 25 69 49q76 49 138.5 111.5t109.5 138.5q31 51 34 87t7 77 q8 47 54 97t85 50q47 0 47 -83q0 -78 -43 -218q-51 -166 -59 -217q-29 -172 -43 -276q-20 -156 -21 -281q0 -51 4.5 -168.5t4.5 -124.5q0 -100 -9.5 -166.5t-40.5 -140.5q-59 20 -83.5 65.5t-24.5 110.5q0 37 8 97q18 133 19 161q0 94 24 246q53 328 53 418q0 68 -3 91.5 t-13 70.5l-41 -41q-18 -10 -45 -58q-33 -61 -39 -67q-55 -61 -159.5 -116.5t-194.5 -55.5q-66 0 -108 34.5t-54 116.5q-2 12 -2 37z" />
<glyph unicode="h" horiz-adv-x="888" d="M82 195q0 98 24 239q57 328 58 393q8 102 37 250q23 123 47 246q14 100 28 201q23 121 74 172q10 6 19 6q27 0 36 -55.5t9 -112.5v-25q-12 -80 -37 -164.5t-47 -166.5q-68 -254 -80 -312q-43 -188 -43 -327q0 -100 20 -189q92 66 174 178q47 63 136 215q82 139 108 175 q41 53 78 73q23 -49 32 -102t9 -117q0 -47 -2 -96l-4 -98q0 -49 6 -103l168 -520q0 -25 -2 -37q-166 104 -228 358q-41 203 -81 406q-66 -104 -152 -229q-53 -78 -160 -226q-6 -10 -76 -147q-37 -74 -110 -100q-20 41 -30.5 100t-10.5 115z" />
<glyph unicode="i" horiz-adv-x="370" d="M111 135q0 51 10 116.5t22 139.5q16 158 41 311q6 90 15 181q18 39 90 47l20 -21v-41q6 -18 8 -46.5t2 -33.5q0 -53 -17 -121.5t-34 -129.5q-8 -35 -14 -99.5t-6 -171.5v-39q0 -20 6 -51q14 -74 14 -94q0 -31 -13 -51.5t-48 -30.5q-20 -4 -27 -4q-39 0 -54 36t-15 103z M262 1358q0 63 22 101q18 31 51 31q7 0 15 -1q31 -6 42 -26.5t11 -53.5q0 -20 -5 -47t-7 -39q-8 -57 -21.5 -76.5t-60.5 -48.5l-20 21v22q-27 37 -27 117z" />
<glyph unicode="j" horiz-adv-x="661" d="M-207 -682q12 -10 36 -25.5t28 -15.5q35 -4 72.5 -12t54.5 -8q35 0 77 20q147 72 234 258q76 164 76 342q0 133 30 322q16 96 33 192q2 23 11.5 70t9.5 76v104h20l21 21l-21 20h-20q0 41 23.5 68.5t53.5 27.5q27 0 46.5 -24.5t19.5 -71.5q2 -12 2 -41q0 -70 -14 -156 q-25 -139 -49 -278q-20 -166 -41 -330q0 -47 -15 -80q-25 -53 -47 -106q-33 -164 -100 -295q-88 -172 -211 -223q-88 -39 -166 -39q-74 0 -115 39q-49 47 -49 145zM573 1395q0 41 9.5 62.5t33 29.5t35.5 8q33 0 46.5 -31.5t13.5 -85.5q0 -47 -13.5 -115.5t-15.5 -84.5h-20 q-14 0 -35 30.5t-30 56t-16.5 59.5t-7.5 71z" />
<glyph unicode="k" d="M82 117q0 57 24 147q18 63 37 127q63 283 104.5 579t41.5 560q0 43 3 116.5t46 73.5q23 0 57.5 -27.5t34.5 -123.5q0 -61 -16 -152q-23 -111 -43 -219q0 -76 -31 -227.5t-31 -227.5q0 -53 -14 -151t-14 -141v-34t8 -46q104 66 239 211q113 121 226 243q131 129 237 166 q12 -43 13 -82q0 -86 -52 -170q-20 -35 -209 -243q-53 -59 -53 -107q0 -37 36 -66.5t109.5 -57t152.5 -46.5t151 -18q90 0 184 26l20 -20v-23q20 -33 21 -57q0 -51 -82 -72q-55 -14 -125 -14q-68 0 -142.5 17.5t-271.5 84.5q-33 10 -143 78q-94 57 -149 58q-57 0 -101 -52 q-6 -6 -74 -133q-49 -90 -100 -90q-29 0 -51.5 13.5t-32.5 40t-10 59.5zM621 475q92 59 143 119q63 74 63 149l-43 -41q-37 -16 -98 -108q-53 -82 -65 -119z" />
<glyph unicode="l" horiz-adv-x="743" d="M92 76q0 23 23 53q33 37 49 55q66 74 88 164q16 66 16 178v72q0 334 94 590q115 313 361 467q82 -35 121 -115q33 -70 33 -174q0 -100 -33 -233q-19 -76 -60 -203q-27 -84 -127 -230q-131 -193 -161 -241q-82 -137 -82 -228v-24q0 -127 116 -193q68 -37 234 -75 q-55 -61 -125 -62q-96 0 -236 129q-82 84 -114 117q-31 -57 -47 -78q-35 -45 -70 -45q-23 0 -51.5 22.5t-28.5 53.5zM342 625q0 -98 29 -170q154 154 274 374q143 262 143 467q0 109 -45 193h-20l-41 -41q-49 -29 -95 -90.5t-71 -116.5q-94 -217 -134 -365.5t-40 -250.5z " />
<glyph unicode="m" horiz-adv-x="1611" d="M76 201q0 131 20 311q47 418 47 522q0 53 7.5 92t31.5 39q18 0 47 -32.5t29 -110.5q0 -43 -4 -78t-6 -55q-29 -213 -55 -424q0 -72 14 -135q106 76 217 233q92 137 184 277q113 160 219 235q47 -78 47 -184q0 -78 -24 -191q-57 -262 -57 -329q0 -53 12 -103 q82 66 156 154q27 33 217 301q66 90 120 90q61 0 111 -106q33 -72 59 -191q8 -37 19 -67q20 -59 43 -119q14 -47 61 -72q27 -14 41 -31q23 -29 23 -57q0 -16 -8.5 -41t-14.5 -47q-20 -82 -78 -82q-57 0 -84.5 77t-48.5 146q-27 84 -39 159t-38.5 111.5t-65.5 36.5 q-70 0 -186 -141q-57 -70 -162 -225q-78 -119 -150 -119q-74 0 -98 139q-4 20 -6 47t-2 52q0 49 6 114q14 154 14 189q0 57 -12 116q-156 -139 -291 -340q-164 -244 -164 -403h-80h-24q-31 18 -37 45q-2 35 -6 82t-4 115z" />
<glyph unicode="n" horiz-adv-x="1054" d="M96 18q0 53 15 134q33 182 32 239q0 229 19 336q37 211 147 264q2 -16 3 -31.5t1 -35.5q0 -68 -18 -179q-41 -246 -41 -311q0 -68 14 -125l41 41q51 43 105 127q29 45 82 144q102 184 149 251q113 162 203 183q41 -117 44 -286t5 -323q12 -176 74 -303q27 12 52.5 28.5 t51.5 35.5q6 -31 6 -57q0 -63 -35.5 -102.5t-84.5 -39.5q-45 0 -84 40t-48.5 103.5t-27.5 245.5q-27 262 -78 367q-90 -115 -176 -250q-59 -94 -156 -266q-55 -109 -108 -217q-74 -129 -160 -154q-14 33 -20.5 69t-6.5 72z" />
<glyph unicode="o" d="M100 244q0 96 39 225q4 10 68 193q39 111 94 183.5t154 145.5q53 41 133 55.5t139 25.5t99 17.5t85 6.5q70 -1 123 -21q55 -23 78 -79t23 -134q0 -47 -4.5 -73.5t-14.5 -65.5q-68 -236 -291 -467q-250 -258 -475 -258q-29 0 -41 2q-113 12 -161 76.5t-48 167.5zM197 246 q0 -68 39.5 -106t134.5 -38q162 0 327 156q123 115 232 299q53 88 80 152q37 86 37 149t-41 98t-138 35h-26q-111 0 -226 -73q-102 -66 -182 -175q-78 -100 -143 -219q-94 -172 -94 -278z" />
<glyph unicode="p" horiz-adv-x="1011" d="M80 -1124q2 33 2 49q0 166 9 378t20.5 445.5t11.5 353.5q0 190 51 482q27 141 53.5 294.5t156.5 271.5t292 118q33 0 67 -6q135 -27 201 -115q59 -80 60 -201q0 -170 -107 -375q-98 -188 -215 -282q-82 -68 -162 -133q-57 -45 -106 -74q-70 -41 -92.5 -86t-32.5 -139 q-20 -170 -39 -346.5t-31 -347.5t-12 -341q-8 0 -31.5 -3t-34.5 -3q-33 0 -39 6q-23 18 -22 54zM322 291q0 -84 28 -148l41 41q35 10 74 35q18 12 113 90q121 96 212 235.5t119 282.5q6 35 6 68q0 94 -43 158q-51 74 -149 84q-14 2 -25.5 2h-15.5q-156 0 -240 -146 q-71 -121 -71 -286q0 -58 -33 -261q-16 -102 -16 -155z" />
<glyph unicode="q" horiz-adv-x="1034" d="M82 184q0 158 143 336q113 139 320 301q53 43 323 234h41q0 -12 2 -27.5t2 -30.5q0 -47 -22.5 -76.5t-85.5 -72.5q-55 -37 -135 -100q-88 -72 -133 -107q-145 -119 -220 -199q-133 -145 -133 -258q0 -45 20.5 -63.5t57.5 -18.5q31 0 67 11.5t126 50.5q51 23 127 84 q84 72 120 102q61 51 95 119q6 12 71 233q14 49 40 73t57 24q41 0 72.5 -36t31.5 -83q0 -31 -14 -59q-82 -160 -162 -318q-94 -205 -94 -354q0 -37 6 -72q35 -227 35 -440q0 -115 -12.5 -225.5t-24.5 -157.5q-23 -88 -60 -129q-8 -8 -32.5 -15.5t-73.5 -7.5q-27 0 -51.5 1 t-48.5 1q0 178 34.5 407.5t69.5 440.5q4 25 22.5 136.5t18.5 152.5q0 35 6 59q18 76 19 86q0 8 -5 41q-31 -20 -129 -88q-135 -94 -223 -119q-47 -12 -92 -12q-80 0 -125 39q-51 45 -51 137zM639 -829q0 -100 23 -162q102 211 102 434q0 98 -21 186q-6 -8 -12 -18 q-21 -39 -29 -66q-29 -82 -46 -181t-17 -193z" />
<glyph unicode="r" horiz-adv-x="722" d="M74 158q0 43 3 68.5t25 123.5q8 37 12.5 100.5t4.5 108.5q0 41 -1 81t-1 81q0 66 6 127q55 -16 65.5 -24.5t38.5 -59.5l21 20q18 0 37 27q12 18 24 37q84 68 174 108q106 49 199 50q96 0 166 -56q-164 -27 -223 -51q-94 -37 -191 -135q-41 -41 -92 -107q-39 -49 -74 -100 q-22 -32 -22 -67v-38q0 -18 2 -38l-41 -434q-72 8 -102.5 56t-30.5 122z" />
<glyph unicode="s" horiz-adv-x="847" d="M88 690q0 37 14 74q45 109 215 174q139 53 281 53q86 10 172 21q55 0 87 -23t32 -80q0 -43 -14.5 -60.5t-38.5 -17.5q-14 0 -53.5 8.5t-59.5 8.5l-21 -21h-20q-35 0 -82 11.5t-74 11.5q-20 0 -60 -5t-100.5 -31t-97.5 -71q-27 -33 -26 -61q0 -74 159 -135q12 -4 240 -72 q90 -31 133 -59q59 -41 60 -90q0 -51 -71 -119t-198 -131q-147 -74 -252 -74q-57 0 -96 23.5t-53 76.5q59 6 123.5 14.5t126.5 26.5q29 10 61 27q51 29 103 57q47 18 69.5 37t54.5 66l-20 20h-20q-29 31 -78 53q-33 14 -88 31q-193 49 -252 76q-156 72 -156 180z" />
<glyph unicode="t" d="M78 764q0 63 48 84.5t145.5 46.5t142.5 35q158 41 174 241q4 106 10 213q6 45 26.5 113t37.5 74q9 3 18 3q30 0 54 -36q30 -47 30 -90q0 -82 -59 -274q-35 -113 -43 -162q29 -6 65 -6q53 0 104 4q180 14 197 14q80 0 128 -16.5t63 -57.5q-96 0 -212 -27.5t-240 -57 t-175 -201.5q-35 -115 -35 -324v-18q0 -35 7 -109t7 -92q0 -41 -7 -65.5t-32.5 -38t-50.5 -13.5q-33 0 -44 29.5t-11 83.5q0 39 2 62.5t6 47.5q0 78 35 240t35 242q0 55 -8 96q-6 -4 -11 -6q-33 -13 -51 -15q-20 -2 -170 -79q-68 -35 -102 -35q-20 0 -39 12q-45 29 -45 82z " />
<glyph unicode="u" d="M84 186q0 51 18.5 143.5t20.5 104.5q10 147 20 295q27 195 125 221q14 -59 15 -133q0 -74 -52 -350q-24 -128 -24 -212v-7q0 -57 15.5 -81t45.5 -24q41 0 115 47q55 39 113 78q174 111 311 310q109 158 205 393h22l21 -21l61 -82q1 -5 1 -10q0 -41 -38 -143 q-25 -66 -24 -94q-10 -86 -16.5 -152t-6.5 -115q0 -43 2 -65q0 -55 19 -170q10 -63 10 -92q0 -66 -29 -129q-96 84 -113.5 282.5t-31.5 376.5l-148 -184q-90 -109 -165.5 -169.5t-151.5 -121.5q-100 -72 -178 -72q-27 0 -62 10q-55 18 -77.5 61.5t-22.5 104.5z" />
<glyph unicode="v" horiz-adv-x="1011" d="M84 825q0 86 18 166q61 -39 86 -127q18 -68 19 -182q0 -115 27.5 -231.5t74.5 -202.5q100 63 215 205q74 92 178 249q207 279 414 560v-43q3 -6 3 -14q0 -16 -12 -35q-17 -29 -32 -54q-80 -143 -166 -268l-454 -684q-47 -74 -86 -115q-51 -53 -88 -53q-27 0 -46.5 29.5 t-27.5 97.5q-61 350 -123 702z" />
<glyph unicode="w" horiz-adv-x="1529" d="M-41 764q10 86 98 143q70 41 104 62.5t66.5 35t57.5 13.5q33 0 51 -23.5t18 -74.5v-25q-4 -18 -4 -27q-43 -268 -84 -536q0 -82 13.5 -147.5t50.5 -143.5q141 78 252 238q31 45 266 526h20l21 -21q23 -8 32 -31.5t9 -60.5q0 -33 -7.5 -77t-12.5 -81.5t-5 -66.5 q0 -98 24.5 -174t69.5 -76q51 0 116 90t114 170q57 90 94 164q12 25 68 174q74 201 180 240q0 -150 -80 -334q-29 -66 -293 -514q-49 -88 -91 -121t-95 -45q-25 -4 -33 -4q-102 0 -156 188q-29 123 -39 166q-51 -41 -97 -118.5t-90 -149.5t-112 -129q-82 -70 -147 -70 q-68 0 -111 76q-33 59 -48 134t-15 153q0 70 14.5 211t14.5 211v73q-6 31 -9 45q-92 -35 -139 -49t-86 -14z" />
<glyph unicode="x" horiz-adv-x="991" d="M20 -227q0 162 105 360q88 170 225 322q35 29 51 45q33 31 33 51q0 45 -76 90q-6 4 -93 42t-87 105q0 18 8.5 45t20.5 56h20l82 -62q86 -96 136.5 -141t91.5 -45q51 0 198.5 147.5t216.5 147.5q33 0 60 -27q43 -43 43 -80q0 -53 -84 -85.5t-168 -63.5q-119 -53 -141 -102 q-6 -10 -7 -21q0 -45 125 -180t125 -187q0 -51 -78 -67q-25 72 -85 148.5t-121 119.5q-35 23 -70 23q-43 0 -111 -52q-35 -27 -69 -53q-68 -51 -107 -96q-49 -55 -80 -131q-45 -113 -71 -166q-49 -100 -93 -143z" />
<glyph unicode="y" horiz-adv-x="1034" d="M82 455v61q0 96 37 205q45 129 108 147l21 -20v-21q22 -34 22 -74q0 -34 -6 -59q-12 -37 -16 -53q-25 -84 -39 -151.5t-14 -137.5q0 -55 13 -109.5t48 -82t82 -27.5q70 0 137 51q88 70 195.5 202t156.5 235q12 27 45 120q47 135 99 168q25 -57 35 -115.5t10 -119.5 q0 -94 -27 -217q-78 -360 -80 -375q-12 -106 -39 -279q-37 -233 -43 -278q-23 -145 -43 -225q-31 -117 -82 -209q-12 59 -12 123q0 100 29 251q43 223 45 246q33 262 67 522q0 109 -26 201q-109 -154 -207 -254q-162 -164 -283 -164q-88 0 -151 86q-51 74 -66.5 157 t-15.5 196z" />
<glyph unicode="z" d="M88 815q0 53 72 100q57 37 117.5 52.5t117 24.5t107.5 9q98 0 153 -34q68 -43 68 -140q0 -174 -129 -372q-35 -53 -139 -187q104 0 260 25q362 57 463 57v-20v-5q0 -30 -66 -53q-45 -16 -113.5 -27.5t-146.5 -35.5l-254 -86q-164 -59 -328 -117q-37 0 -63 14 q-59 31 -60 74q0 49 99 129q41 33 84 66q102 86 186 207q106 152 107 258q0 20 -2 30q-8 47 -36 66.5t-71 19.5q-37 0 -98.5 -18t-87 -25.5t-107.5 -74.5q-35 -29 -57 -29q-20 0 -41 20q-12 12 -21 27q-14 25 -14 45z" />
<glyph unicode="{" horiz-adv-x="1054" d="M233 -55q0 68 141.5 221t141.5 235q0 53 -84 115t-84 105q0 27 23 61q14 23 127 129q84 80 84 133q0 31 -19.5 57.5t-66.5 53.5q-82 49 -118 103t-36 118q0 137 166 283q147 129 319 178q27 8 74 15t68 7q74 0 73 -39q0 -27 -30 -65q-10 -16 -56.5 -25.5t-87.5 -17.5 q-66 -16 -139.5 -49t-130.5 -74q-86 -63 -120 -114.5t-34 -94.5q0 -29 11.5 -52.5t40.5 -49.5q92 -63 129 -91q63 -49 63 -126q0 -23 -7 -60t-44 -82q-94 -113 -100.5 -134t-6.5 -34q0 -18 15 -39q25 -33 33 -55q29 -72 28 -141q0 -106 -86 -225t-170 -232q43 -31 131 -68 q141 -59 181 -139h-21l-20 -20h-23q-39 -8 -129 23.5t-140 61t-73 60.5t-23 68z" />
<glyph unicode="|" horiz-adv-x="598" d="M283 195q0 55 8 137q18 182 18 225q0 137 72 645q33 233 33 389q0 66 15 129.5t56 63.5q23 0 52 -27q23 -18 30.5 -39.5t7.5 -50.5q0 -35 -13 -78t-25 -80q-55 -213 -103 -567q-25 -182 -43 -344q-6 -59 -6 -121q0 -59 2 -116.5t4 -112.5q0 -41 16.5 -125t16.5 -123 q0 -49 -16.5 -84t-57.5 -59l-20 20q-16 12 -27.5 110.5t-15.5 130.5t-4 77z" />
<glyph unicode="}" horiz-adv-x="868" d="M227 1612q-4 35 30 57.5t73 26.5q156 0 264 -43q150 -59 149 -185q0 -119 -86 -239q-236 -332 -243.5 -359.5t-7.5 -52.5q0 -74 98 -74q57 0 162 27q133 33 139 35q8 -31 8 -62q0 -70 -78 -129q-102 -78 -137 -139q-20 -35 -20 -63q0 -39 47 -78q29 -23 57 -45 q39 -35 58.5 -84t19.5 -105q0 -154 -119 -295t-262 -141q-25 0 -49 6q25 27 149 131q186 156 187 283q0 10 -6.5 49t-53.5 88q-123 129 -131 150q-14 35 -14 69q0 41 18.5 87t36.5 94q-123 27 -156 45q-72 41 -71 139q0 106 84 223q123 168 248 336q14 37 14 70 q0 86 -107 116q-70 20 -204 21h-76v20z" />
<glyph unicode="~" horiz-adv-x="1323" d="M227 694q0 41 21 70q86 133 203 133q78 0 147 -70q63 -63 151.5 -97t182.5 -34q39 0 80 6q74 12 145 105l62 82q25 -41 38 -75t13 -64q0 -37 -21.5 -69t-70.5 -60q-37 -23 -123 -39.5t-172 -16.5q-70 0 -119 13q-12 4 -197 127q-70 47 -112 38q-37 -6 -68 -34 q-18 -18 -78 -111h-20l-21 23q-18 6 -29.5 27.5t-11.5 45.5z" />
<glyph unicode="&#xad;" horiz-adv-x="1363" d="M268 764q0 39 31 53t86 14q20 0 64.5 -2t62.5 -2h25q55 0 131 17q203 43 255 47t134 4q74 0 187.5 -3t119.5 -3v-21q0 -23 -14 -22q-14 0 -27 2q-18 -16 -31.5 -17.5t-29.5 -3.5q-252 -29 -498 -84q-100 -25 -197.5 -45t-156.5 -20q-66 0 -104 19.5t-38 66.5z" />
<glyph unicode="&#xfd;" horiz-adv-x="0" />
<glyph unicode="&#x2000;" horiz-adv-x="1026" />
<glyph unicode="&#x2001;" horiz-adv-x="2052" />
<glyph unicode="&#x2002;" horiz-adv-x="1026" />
<glyph unicode="&#x2003;" horiz-adv-x="2052" />
<glyph unicode="&#x2004;" horiz-adv-x="684" />
<glyph unicode="&#x2005;" horiz-adv-x="513" />
<glyph unicode="&#x2006;" horiz-adv-x="342" />
<glyph unicode="&#x2007;" horiz-adv-x="342" />
<glyph unicode="&#x2008;" horiz-adv-x="256" />
<glyph unicode="&#x2009;" horiz-adv-x="410" />
<glyph unicode="&#x200a;" horiz-adv-x="114" />
<glyph unicode="&#x2010;" horiz-adv-x="1363" d="M268 764q0 39 31 53t86 14q20 0 64.5 -2t62.5 -2h25q55 0 131 17q203 43 255 47t134 4q74 0 187.5 -3t119.5 -3v-21q0 -23 -14 -22q-14 0 -27 2q-18 -16 -31.5 -17.5t-29.5 -3.5q-252 -29 -498 -84q-100 -25 -197.5 -45t-156.5 -20q-66 0 -104 19.5t-38 66.5z" />
<glyph unicode="&#x2011;" horiz-adv-x="1363" d="M268 764q0 39 31 53t86 14q20 0 64.5 -2t62.5 -2h25q55 0 131 17q203 43 255 47t134 4q74 0 187.5 -3t119.5 -3v-21q0 -23 -14 -22q-14 0 -27 2q-18 -16 -31.5 -17.5t-29.5 -3.5q-252 -29 -498 -84q-100 -25 -197.5 -45t-156.5 -20q-66 0 -104 19.5t-38 66.5z" />
<glyph unicode="&#x2012;" horiz-adv-x="1363" d="M268 764q0 39 31 53t86 14q20 0 64.5 -2t62.5 -2h25q55 0 131 17q203 43 255 47t134 4q74 0 187.5 -3t119.5 -3v-21q0 -23 -14 -22q-14 0 -27 2q-18 -16 -31.5 -17.5t-29.5 -3.5q-252 -29 -498 -84q-100 -25 -197.5 -45t-156.5 -20q-66 0 -104 19.5t-38 66.5z" />
<glyph unicode="&#x2013;" horiz-adv-x="1198" d="M102 764q0 39 31 53t86 14q20 0 64.5 -2t62.5 -2h25q55 0 133 17q207 43 256 47t131 4q76 0 190.5 -3t116.5 -3v-21q0 -23 -12 -22q-14 0 -29 2q-18 -16 -31.5 -17.5t-29.5 -3.5q-248 -29 -498 -84q-100 -25 -197.5 -45t-156.5 -20q-66 0 -104 19.5t-38 66.5z" />
<glyph unicode="&#x2014;" horiz-adv-x="1198" d="M102 764q0 39 31 53t86 14q20 0 64.5 -2t62.5 -2h25q55 0 133 17q207 43 256 47t131 4q76 0 190.5 -3t116.5 -3v-21q0 -23 -12 -22q-14 0 -29 2q-18 -16 -31.5 -17.5t-29.5 -3.5q-248 -29 -498 -84q-100 -25 -197.5 -45t-156.5 -20q-66 0 -104 19.5t-38 66.5z" />
<glyph unicode="&#x2018;" horiz-adv-x="454" d="M113 1319q0 168 45 272q57 131 176 131q27 0 57 -6q-10 -43 -108 -176q-47 -63 -57.5 -124.5t-10.5 -125.5q0 -84 18.5 -169t55.5 -191h-41q-37 0 -82 108q-35 86 -44 146.5t-9 134.5z" />
<glyph unicode="&#x2019;" horiz-adv-x="434" d="M102 1075q18 76 47 156t58 153q6 20 24 236q6 76 37 137h21l41 -41q20 -18 27.5 -41.5t7.5 -56.5q0 -27 -6.5 -59.5t-8.5 -49.5q-14 -70 -55 -163q-98 -219 -111 -271h-82z" />
<glyph unicode="&#x201c;" horiz-adv-x="641" d="M6 1659q0 80 22.5 133t73.5 70q12 -39 16.5 -79t4.5 -87q0 -23 -2 -70t-2 -70q0 -61 9 -111t36 -102q57 45 90 82q45 53 53 92t10 82t2 84q0 160 9.5 210.5t42.5 91.5q33 -33 46 -66t13 -68q0 -20 -8 -77.5t-8 -98.5q0 -76 27.5 -210t33.5 -183q-53 12 -90 41t-76 61 q-25 -59 -68.5 -95t-86.5 -36q-41 0 -72 33t-41 98q-20 109 -27.5 167.5t-7.5 107.5z" />
<glyph unicode="&#x201d;" horiz-adv-x="1054" d="M461 1450q0 92 74 231q66 125 127 181q12 -25 18 -54.5t6 -50.5q0 -53 -44 -149.5t-44 -159.5q121 76 223 194q76 90 170 240q49 -47 49 -88q0 -25 -10 -51q-35 -91 -39 -111q-20 -100 -40.5 -203.5t-20.5 -187.5q-61 14 -82 51t-21 97q0 16 2 53t2 55q0 12 -2 28.5 t-2 24.5q-102 -104 -169.5 -157.5t-112.5 -53.5t-70 45q-14 27 -14 66z" />
<glyph unicode="&#x202f;" horiz-adv-x="410" />
<glyph unicode="&#x205f;" horiz-adv-x="513" />
<glyph unicode="&#xe000;" horiz-adv-x="931" d="M0 0v932h932v-932h-932z" />
</font>
</defs>
</svg>
